<svg width="18" height="18" viewBox="0 0 18 18" fill="none" xmlns="http://www.w3.org/2000/svg">
<path d="M14.4375 5.25C14.4375 6.18198 13.682 6.9375 12.75 6.9375C11.818 6.9375 11.0625 6.18198 11.0625 5.25C11.0625 4.31802 11.818 3.5625 12.75 3.5625C13.682 3.5625 14.4375 4.31802 14.4375 5.25Z" stroke="#B1B3B3" stroke-width="1.5" stroke-linecap="round" stroke-linejoin="round"/>
<path d="M6.9375 9C6.9375 9.93198 6.18198 10.6875 5.25 10.6875C4.31802 10.6875 3.5625 9.93198 3.5625 9C3.5625 8.06802 4.31802 7.3125 5.25 7.3125C6.18198 7.3125 6.9375 8.06802 6.9375 9Z" stroke="#B1B3B3" stroke-width="1.5" stroke-linecap="round" stroke-linejoin="round"/>
<path d="M14.4375 12.75C14.4375 13.682 13.682 14.4375 12.75 14.4375C11.818 14.4375 11.0625 13.682 11.0625 12.75C11.0625 11.818 11.818 11.0625 12.75 11.0625C13.682 11.0625 14.4375 11.818 14.4375 12.75Z" stroke="#B1B3B3" stroke-width="1.5" stroke-linecap="round" stroke-linejoin="round"/>
<path d="M10.875 12L6.75 10.125" stroke="#B1B3B3" stroke-width="1.5" stroke-linecap="round" stroke-linejoin="round"/>
<path d="M10.875 6.375L6.75 8.25" stroke="#B1B3B3" stroke-width="1.5" stroke-linecap="round" stroke-linejoin="round"/>
</svg>
